<?xml version="1.0" encoding="UTF-8"?>
<svg version="1.1" xmlns="http://www.w3.org/2000/svg" width="891" height="154">
<path d="M0 0 C1.07428314 -0.00843994 2.14856628 -0.01687988 3.25540346 -0.02557558 C4.43486262 -0.01956553 5.61432178 -0.01355549 6.82952213 -0.00736332 C8.08306258 -0.01274886 9.33660302 -0.01813439 10.62812954 -0.02368313 C14.10979653 -0.03817081 17.59122747 -0.03388278 21.07290757 -0.02651632 C24.82691031 -0.02179511 28.58086121 -0.03428519 32.33484745 -0.04453373 C39.69006368 -0.06174769 47.04519458 -0.06255638 54.40042572 -0.05732083 C60.37760428 -0.05328272 66.35475758 -0.0547184 72.33193493 -0.06006908 C73.18198526 -0.06081751 74.03203558 -0.06156593 74.90784501 -0.06233703 C76.63460922 -0.06386847 78.36137343 -0.06540682 80.08813763 -0.066952 C96.2888555 -0.08068643 112.48952511 -0.07523273 128.69024188 -0.06376678 C143.51763619 -0.05383337 158.34490572 -0.06677526 173.17228078 -0.09070098 C188.39032156 -0.11507242 203.60830419 -0.12470467 218.8263641 -0.11804825 C227.37284794 -0.11455168 235.9192358 -0.11681691 244.46570492 -0.13429928 C251.74116366 -0.14899685 259.01645883 -0.14968886 266.29191428 -0.13222837 C270.00497755 -0.12369569 273.71774834 -0.12162362 277.43079662 -0.13687992 C281.45342967 -0.15320383 285.47535235 -0.13862658 289.49797916 -0.12088871 C290.6752076 -0.13049372 291.85243605 -0.14009872 293.06533808 -0.14999479 C300.94661771 -0.07816842 300.94661771 -0.07816842 304.86657143 2.22414207 C307.73367015 5.54658085 308.97633067 7.49848579 308.99466801 11.84549618 C309.00746296 13.21655766 309.00746296 13.21655766 309.0205164 14.61531734 C309.01961002 15.61590679 309.01870365 16.61649624 309.01776981 17.64740658 C309.02448704 18.70295238 309.03120426 19.75849819 309.03812504 20.84603024 C309.05716347 24.34448578 309.06103221 27.84275007 309.06317997 31.34125423 C309.06960386 33.76879614 309.07633191 36.19633727 309.08335209 38.62387753 C309.09533952 43.71653698 309.0990314 48.80912853 309.09784794 53.90180111 C309.09764468 60.43124362 309.1249482 66.96025124 309.15939236 73.48959064 C309.18161717 78.5047166 309.18568683 83.51973717 309.18462849 88.53490734 C309.18699106 90.94228902 309.19585126 93.34967333 309.21129322 95.75700665 C309.23086299 99.12312782 309.2251499 102.48830179 309.21308231 105.85443783 C309.22432133 106.85097881 309.23556034 107.8475198 309.24713993 108.874259 C309.20847918 113.11262359 309.1583916 115.66098596 306.94687748 119.35068417 C303.04839823 122.91545064 300.92099049 124.75376421 295.4913063 124.76622009 C294.42522335 124.77589343 293.3591404 124.78556677 292.2607519 124.79553324 C291.09043888 124.79088743 289.92012585 124.78624163 288.71434879 124.78145504 C287.47038658 124.78825171 286.22642438 124.79504838 284.94476634 124.80205101 C281.48968306 124.8177784 278.03506743 124.82000219 274.57998145 124.81646788 C270.85455909 124.81585632 267.12920693 124.83240773 263.40381718 124.84664059 C256.10409015 124.87157256 248.80443579 124.87980568 241.50466975 124.88147772 C235.57136632 124.88290269 229.6380869 124.88906438 223.70479107 124.8985796 C206.88592496 124.92500335 190.0671163 124.93883718 173.24822929 124.93658818 C172.34129631 124.93646831 171.43436334 124.93634844 170.49994755 124.93622494 C169.59190822 124.9361023 168.6838689 124.93597965 167.74831323 124.9358533 C153.03215004 124.93463394 138.31621714 124.96334057 123.60012057 125.00564004 C108.4928079 125.04872162 93.38560758 125.06945111 78.27823192 125.06685871 C69.79533848 125.06586241 61.31268643 125.07411989 52.82984829 125.10639286 C45.60709601 125.13369548 38.38469451 125.14024452 31.161913 125.11986459 C27.4768125 125.11006171 23.79238512 125.10992185 20.10734844 125.13592434 C16.11141736 125.16383046 12.11704793 125.14521137 8.12108707 125.12203121 C6.95746621 125.1374619 5.79384535 125.15289259 4.59496325 125.16879088 C-1.74836549 125.08729864 -5.47625669 124.47311953 -10.02425927 119.8826527 C-11.58968665 117.99895135 -12.80897485 116.23496616 -13.83525753 114.00531673 C-14.42500362 112.72527767 -14.42500362 112.72527767 -15.02666378 111.41937923 C-16.80749421 107.07616271 -18.43593863 102.68103639 -20.04033566 98.26996517 C-21.43722301 94.46533238 -22.94359874 90.84887545 -24.83525753 87.25531673 C-28.9650788 79.35653236 -34.4433181 68.41683253 -32.92510128 59.29047298 C-32.68920284 58.68074642 -32.45330441 58.07101986 -32.21025753 57.44281673 C-31.92795284 56.68871517 -31.64564816 55.93461361 -31.35478878 55.15766048 C-30.99771847 54.24113705 -30.64064816 53.32461361 -30.27275753 52.38031673 C-29.59793331 50.52600033 -29.59793331 50.52600033 -28.90947628 48.63422298 C-26.38783031 41.71649924 -23.70209631 34.96852978 -20.55791378 28.30609798 C-18.65167755 23.9663687 -17.06109268 19.51220502 -15.50322628 15.03656673 C-12.68379832 7.18915892 -9.16534284 0.01016016 0 0 Z " fill="#F9BD1D" transform="translate(575.2727575302124,14.619683265686035)"/>
<path d="M0 0 C11.55 0 23.1 0 35 0 C39.25572173 6.07960247 43.44589975 12.09578372 47.375 18.375 C47.81199219 19.05949219 48.24898438 19.74398437 48.69921875 20.44921875 C49.11558594 21.11308594 49.53195312 21.77695312 49.9609375 22.4609375 C50.33009277 23.04665527 50.69924805 23.63237305 51.07958984 24.23583984 C52.0702785 26.13470357 52.56223279 27.90984804 53 30 C53.66 30 54.32 30 55 30 C56.48046875 32.01953125 56.48046875 32.01953125 58.1875 34.8125 C59.11175781 36.30523437 59.11175781 36.30523437 60.0546875 37.828125 C60.69664062 38.87484375 61.33859375 39.9215625 62 41 C63.26613423 43.02378082 64.53674112 45.04477257 65.8125 47.0625 C66.65748047 48.41021484 66.65748047 48.41021484 67.51953125 49.78515625 C68.94800171 52.07794816 68.94800171 52.07794816 71 54 C71.35191406 53.40574219 71.70382812 52.81148437 72.06640625 52.19921875 C77.66302371 42.80333096 83.5138634 33.64829584 89.80175781 24.70043945 C91.90887926 21.67201662 93.83431207 18.63353616 95.5625 15.375 C98.57731348 9.96379631 102.3566466 5.00961093 106 0 C117.55 0 129.1 0 141 0 C141 40.92 141 81.84 141 124 C129.45 124 117.9 124 106 124 C105.67 104.53 105.34 85.06 105 65 C96.63577592 77.07066826 96.63577592 77.07066826 88.73046875 89.375 C88.15941406 90.24125 87.58835937 91.1075 87 92 C86.42294312 93.01598267 86.42294312 93.01598267 85.83422852 94.05249023 C83.82456489 97.24443432 82.32713728 99.55415724 78.66137695 100.78564453 C75.91403708 101.11597668 73.32760547 101.16121929 70.5625 101.0625 C69.14517578 101.03337524 69.14517578 101.03337524 67.69921875 101.00366211 C63.59594668 100.76839922 60.76641542 100.47833019 57.24609375 98.28125 C55.40165008 95.93752739 54.2093803 93.72213058 53 91 C52.0255708 89.35135739 51.0466241 87.70537384 50.0625 86.0625 C48 82.3022508 48 82.3022508 48 80 C47.01 79.67 46.02 79.34 45 79 C42.03 74.38 39.06 69.76 36 65 C35.67 84.47 35.34 103.94 35 124 C23.45 124 11.9 124 0 124 C0 83.08 0 42.16 0 0 Z " fill="#000000" transform="translate(386,15)"/>
<path d="M0 0 C11.22 0 22.44 0 34 0 C36.91276801 4.07787522 39.50270877 7.76236851 42 12 C43.68923118 14.65820735 45.40825796 17.29700001 47.125 19.9375 C48.11087382 21.45690361 49.09654794 22.97643682 50.08203125 24.49609375 C50.57268066 25.2526123 51.06333008 26.00913086 51.56884766 26.78857422 C54.03070799 30.59265659 56.47442203 34.40838376 58.91625977 38.2253418 C61.53746801 42.31203012 64.23692116 46.33886737 67.00390625 50.328125 C68 52 68 52 68 54 C72.61087729 50.08774048 75.16500983 45.46539212 78.125 40.234375 C81.16614641 34.98839745 84.59709249 30.0157757 88 25 C89.71327958 22.46163212 91.41995204 19.91890197 93.125 17.375 C93.52050049 16.79000732 93.91600098 16.20501465 94.32348633 15.60229492 C97.7486826 10.49380285 100.82156367 5.29739389 104 0 C115.55 0 127.1 0 139 0 C139 40.92 139 81.84 139 124 C127.45 124 115.9 124 104 124 C103.505 95.29 103.505 95.29 103 66 C98.00568501 73.49147248 93.07680572 80.97130394 88.2734375 88.578125 C87.90871338 89.12106201 87.54398926 89.66399902 87.16821289 90.22338867 C86.32110422 91.51166658 85.52702587 92.83531596 84.76733398 94.17700195 C82.7597705 97.39702953 81.35486599 99.61466861 77.6015625 100.68212891 C74.79616801 100.89662896 72.12091276 100.84770499 69.3125 100.6875 C68.36310547 100.67654297 67.41371094 100.66558594 66.43554688 100.65429688 C59.56426253 100.45491778 59.56426253 100.45491778 57.35839844 98.67651367 C55.01771525 95.78767984 52.99101655 92.72171491 50.9375 89.625 C50.26750977 88.635 50.26750977 88.635 49.58398438 87.625 C47.2904577 84.18299583 45.34761074 80.94385516 44 77 C43.34 77 42.68 77 42 77 C41.66226563 76.38511719 41.32453125 75.77023438 40.9765625 75.13671875 C40.53054688 74.32847656 40.08453125 73.52023438 39.625 72.6875 C39.18414062 71.88699219 38.74328125 71.08648437 38.2890625 70.26171875 C37.26486665 68.46472057 36.14732862 66.72099292 35 65 C34.67 84.47 34.34 103.94 34 124 C22.78 124 11.56 124 0 124 C0 83.08 0 42.16 0 0 Z " fill="#000000" transform="translate(237,15)"/>
<path d="M0 0 C13.2 0 26.4 0 40 0 C47.61536301 18.24145093 54.98786154 36.51822349 62 55 C63.76603859 59.64767598 65.53796632 64.29306199 67.3125 68.9375 C67.70904785 69.98510498 68.1055957 71.03270996 68.51416016 72.11206055 C70.77561657 78.03091652 73.24026428 83.80011988 75.8996582 89.55053711 C77.2619358 92.58309339 78.37719453 95.6626548 79.4375 98.8125 C81.59874897 105.03552482 84.09502966 111.02334 86.765625 117.0390625 C88 120 88 120 89 124 C76.79 124 64.58 124 52 124 C52 123.34 52 122.68 52 122 C51.34 122 50.68 122 50 122 C49.16280617 119.70967689 48.3301071 117.41789043 47.5 115.125 C47.26152344 114.47402344 47.02304688 113.82304687 46.77734375 113.15234375 C45 108.2265625 45 108.2265625 45 106 C38.36141777 105.97467746 31.72284797 105.95714472 25.08422852 105.94506836 C22.8251092 105.94003474 20.56599314 105.93320738 18.30688477 105.92456055 C15.06265457 105.91245255 11.81846739 105.90676201 8.57421875 105.90234375 C7.56163498 105.89718246 6.54905121 105.89202118 5.50578308 105.88670349 C4.56503433 105.88662796 3.62428558 105.88655243 2.6550293 105.88647461 C1.41259712 105.88314369 1.41259712 105.88314369 0.14506531 105.87974548 C-2.18652286 105.91626804 -2.18652286 105.91626804 -5 107 C-6.01809558 109.49227444 -6.85681622 111.8697746 -7.625 114.4375 C-9.95833333 121.91666667 -9.95833333 121.91666667 -11 124 C-23.21 124 -35.42 124 -48 124 C-48 122.68 -48 121.36 -48 120 C-47.34 120 -46.68 120 -46 120 C-46.04511719 119.2884375 -46.09023437 118.576875 -46.13671875 117.84375 C-45.97998356 114.58365813 -45.14035446 112.474394 -43.8125 109.5 C-41.52699197 104.24655055 -39.42402397 98.95526369 -37.40625 93.59375 C-36.22118816 90.56525864 -34.98470305 87.57098054 -33.72265625 84.57421875 C-30.35938232 76.53800031 -27.26619998 68.40021086 -24.15405273 60.2644043 C-21.53342992 53.41998304 -18.90046411 46.60718078 -15.8605957 39.93481445 C-14.47394854 36.81731694 -13.30667004 33.63869088 -12.125 30.4375 C-11.87451904 29.76348145 -11.62403809 29.08946289 -11.3659668 28.39501953 C-10.3031544 25.53459451 -9.24731471 22.67162477 -8.19287109 19.80810547 C-7.40207152 17.66274429 -6.60734083 15.51886652 -5.8125 13.375 C-5.45599365 12.3993811 -5.45599365 12.3993811 -5.09228516 11.40405273 C-3.61237627 7.415341 -1.91999511 3.83999023 0 0 Z M19 38 C14.11194163 50.49767305 9.9729145 63.18460409 6 76 C20.0870617 77.69086347 20.0870617 77.69086347 34 76 C32.25873889 68.76962055 29.95251758 61.76380192 27.5 54.75 C27.20343506 53.89889648 26.90687012 53.04779297 26.60131836 52.17089844 C24.90271056 47.36123054 23.06700879 42.6633735 21 38 C20.34 38 19.68 38 19 38 Z " fill="#000000" transform="translate(139,15)"/>
<path d="M0 0 C22.44 0 44.88 0 68 0 C68.16043524 23.01800002 68.16043524 23.01800002 68.1953125 32.87695312 C68.2191659 39.58777618 68.24729639 46.29837963 68.30175781 53.0090332 C68.34541869 58.42312709 68.36917983 63.83698525 68.37950897 69.25124168 C68.38686411 71.31038304 68.4012265 73.36951241 68.42292023 75.42855263 C68.55612605 88.60309355 68.57970286 100.43419524 59.8203125 111.15234375 C53.55725891 117.50947754 46.65957031 121.10799304 38 123 C36.9013562 123.25583862 36.9013562 123.25583862 35.78051758 123.5168457 C30.60158761 124.41675811 25.33627785 124.26505638 20.09228516 124.29516602 C18.71164637 124.30660421 17.33104889 124.32692461 15.95068359 124.35668945 C6.39339528 124.56216082 -2.0531954 123.61673474 -11 120 C-12 119 -12 119 -12.11352539 115.85717773 C-12.11336633 114.46597303 -12.10767506 113.07476239 -12.09765625 111.68359375 C-12.0962413 110.95253922 -12.09482635 110.22148468 -12.09336853 109.46827698 C-12.08775408 107.12464368 -12.07519922 104.78110461 -12.0625 102.4375 C-12.05748686 100.85221492 -12.05292363 99.26692834 -12.04882812 97.68164062 C-12.03777997 93.7877239 -12.02050572 89.89387795 -12 86 C-10.58847656 86.41572266 -10.58847656 86.41572266 -9.1484375 86.83984375 C-7.90320313 87.20207031 -6.65796875 87.56429687 -5.375 87.9375 C-4.14523438 88.29714844 -2.91546875 88.65679687 -1.6484375 89.02734375 C8.33460447 91.68877571 17.33915817 92.0545502 27 88 C29.18899461 86.83379177 29.18899461 86.83379177 31 85 C31.57898472 82.52703899 31.57898472 82.52703899 31.45410156 79.70239258 C31.45379944 78.62149857 31.45349731 77.54060455 31.45318604 76.42695618 C31.43254089 75.26125595 31.41189575 74.09555573 31.390625 72.89453125 C31.38213531 71.10301888 31.38213531 71.10301888 31.37347412 69.27531433 C31.35105175 65.45397153 31.30084195 61.63356025 31.25 57.8125 C31.2299427 55.2246229 31.2116906 52.63673113 31.1953125 50.04882812 C31.15116763 43.69889996 31.08419628 37.34951652 31 31 C30.16750732 31.01571045 29.33501465 31.0314209 28.47729492 31.04760742 C25.38552144 31.09876642 22.29396382 31.1363648 19.2019043 31.16479492 C17.20672299 31.18728333 15.21173787 31.22540198 13.21679688 31.26367188 C11.96318359 31.27333984 10.70957031 31.28300781 9.41796875 31.29296875 C8.26063232 31.3086792 7.1032959 31.32438965 5.91088867 31.34057617 C3 31 3 31 0 28 C0 18.76 0 9.52 0 0 Z " fill="#000000" transform="translate(18,15)"/>
<path d="M0 0 C7.64130436 4.47996827 12.91054566 9.46991824 15.765625 18.03515625 C16.7278144 28.54616194 16.2657655 37.19773119 9.765625 46.03515625 C7.31849763 48.56788273 4.85289681 50.35601032 1.765625 52.03515625 C1.17265625 52.37160156 0.5796875 52.70804688 -0.03125 53.0546875 C-6.91818341 56.27741916 -15.73660617 56.29169625 -22.9609375 54.2734375 C-31.65863386 50.59364289 -36.29266186 45.07233061 -40.35546875 36.734375 C-42.59752427 29.84877337 -42.3629332 20.66506988 -39.546875 13.97265625 C-31.90251384 -0.22401447 -15.25931859 -7.13207282 0 0 Z " fill="#090701" transform="translate(831.234375,57.96484375)"/>
<path d="M0 0 C0.67417969 0.36738281 1.34835937 0.73476563 2.04296875 1.11328125 C8.40388517 5.1589673 11.85834963 10.84530134 14 18 C14.62874518 23.33323853 14.36619777 28.6562251 14 34 C13.34 34 12.68 34 12 34 C11.979375 34.825 11.95875 35.65 11.9375 36.5 C9.97831268 43.81429935 4.11678343 48.36109778 -2.203125 52.08984375 C-9.06724838 55.56667146 -18.68217411 55.00523385 -25.9375 52.875 C-30.43291891 51.06850758 -33.76544213 48.58881897 -37 45 C-37.58265625 44.35804687 -38.1653125 43.71609375 -38.765625 43.0546875 C-44.30147746 35.63043677 -44.22095605 27.04463481 -43.35009766 18.15087891 C-42.17993898 10.96182876 -37.40498315 5.49208218 -31.75390625 1.18359375 C-22.77990419 -4.87235864 -9.52473789 -5.51209887 0 0 Z " fill="#0C0901" transform="translate(773,59)"/>
<path d="M0 0 C3.3 0 6.6 0 10 0 C10.33 9.24 10.66 18.48 11 28 C13.97 25.525 13.97 25.525 17 23 C23.16994622 20.94335126 31.35791432 20.82442483 37.58984375 22.8359375 C43.48393979 26.20722468 46.88821025 31.66463075 49 38 C49.08567246 39.36592183 49.11773647 40.73564858 49.11352539 42.10424805 C49.11344986 42.92487228 49.11337433 43.74549652 49.11329651 44.59098816 C49.10813522 45.47232925 49.10297394 46.35367035 49.09765625 47.26171875 C49.0962413 48.16751175 49.09482635 49.07330475 49.09336853 50.00654602 C49.08777001 52.90023091 49.07521781 55.79383849 49.0625 58.6875 C49.05748481 60.64908742 49.05292193 62.61067606 49.04882812 64.57226562 C49.03780107 69.38154021 49.02053747 74.190757 49 79 C45.7 79 42.4 79 39 79 C38.98598145 77.221698 38.98598145 77.221698 38.97167969 75.4074707 C38.93174002 70.99953955 38.86597019 66.59230342 38.79248047 62.18481445 C38.7642939 60.27898095 38.74306784 58.37303105 38.72900391 56.46704102 C38.70754217 53.72351594 38.66087635 50.98138687 38.609375 48.23828125 C38.60814636 47.38913651 38.60691772 46.53999176 38.60565186 45.66511536 C38.47892401 40.52076103 37.8797856 37.73021336 34 34 C29.69069872 31.14443891 24.98799489 31.3696057 20 32 C14.9403629 34.39182845 13.06750087 36.88478427 11 42 C10.56212984 44.8948658 10.51228964 47.75520429 10.48828125 50.6796875 C10.47033005 51.49245148 10.45237885 52.30521545 10.43388367 53.14260864 C10.38001642 55.7200208 10.34596164 58.2972503 10.3125 60.875 C10.27930601 62.63023362 10.24481443 64.38544321 10.20898438 66.140625 C10.12430389 70.42695103 10.05738103 74.71322512 10 79 C6.7 79 3.4 79 0 79 C0 52.93 0 26.86 0 0 Z " fill="#0F0B01" transform="translate(675,34)"/>
<path d="M0 0 C1.05513794 0.01087646 1.05513794 0.01087646 2.1315918 0.02197266 C9.06408974 0.20573139 14.44580116 1.54720077 20.1875 5.375 C20.48046875 8.1953125 20.48046875 8.1953125 20.375 11.5 C20.33439453 13.14355469 20.33439453 13.14355469 20.29296875 14.8203125 C20.25816406 15.66335937 20.22335937 16.50640625 20.1875 17.375 C19.43984375 16.95347656 18.6921875 16.53195313 17.921875 16.09765625 C16.93703125 15.54980469 15.9521875 15.00195312 14.9375 14.4375 C13.96296875 13.89222656 12.9884375 13.34695312 11.984375 12.78515625 C6.04398929 9.79007351 -0.24836716 9.55105027 -6.8125 10.375 C-9.77686312 12.38576637 -9.77686312 12.38576637 -10.8125 15.375 C-10.97916667 17.54166667 -10.97916667 17.54166667 -9.8125 19.375 C-7.00327658 21.8074286 -4.58729256 22.92907367 -1.00390625 23.83984375 C-0.09189453 24.08283203 0.82011719 24.32582031 1.75976562 24.57617188 C3.6653179 25.06587413 5.57156844 25.55286748 7.47851562 26.03710938 C13.36373839 27.61120918 17.98415589 29.00674587 21.48046875 34.3515625 C23.16328921 39.16759012 22.69601404 43.95651347 21 48.6875 C17.61187649 53.71126935 13.95168016 55.80537968 8.1875 57.375 C5.30799688 57.72245886 2.46134921 57.80267131 -0.4375 57.8125 C-1.61868408 57.81830078 -1.61868408 57.81830078 -2.82373047 57.82421875 C-10.18042176 57.68023458 -15.21663379 55.75749549 -21.8125 52.375 C-21.8125 48.745 -21.8125 45.115 -21.8125 41.375 C-16.8125 43.375 -16.8125 43.375 -14.25 44.9375 C-9.62870757 47.66287759 -5.02148554 47.61632783 0.25 47.6875 C0.96994141 47.71650391 1.68988281 47.74550781 2.43164062 47.77539062 C6.72686751 47.84459532 6.72686751 47.84459532 10.16796875 45.51171875 C11.32856506 43.38969594 11.32856506 43.38969594 11.4375 40.875 C9.68585244 37.37170489 7.55602286 36.69740914 3.99609375 35.2734375 C0.85803499 34.26960786 -2.27807187 33.56145891 -5.5 32.875 C-11.76228508 31.51585761 -15.33132939 30.10428767 -19.6875 25.3125 C-21.48419672 20.62112524 -21.77904119 16.31126392 -20.8125 11.375 C-16.16880458 3.22184511 -9.24278063 -0.18698949 0 0 Z " fill="#0B0801" transform="translate(596.8125,55.625)"/>
<path d="M0 0 C4.9251367 2.15811937 8.97473988 6.05405218 11.375 10.88671875 C13.18585972 17.00968818 12.97674118 23.68216722 10.3125 29.5 C7.61884716 34.08777622 3.86626 36.94650731 -1 39 C-6.90999812 39.87805686 -12.42809885 40.00414721 -17.5 36.5625 C-22.17691699 32.40199259 -24.4591169 27.63405833 -25.375 21.48046875 C-25.66714008 15.53724395 -24.52328767 10.83377882 -21 6 C-14.69926965 -0.46146327 -8.78564763 -1.06866357 0 0 Z " fill="#F6BA1D" transform="translate(825,65)"/>
<path d="M0 0 C4.44512999 1.92565746 7.4776026 4.59988329 9.82421875 8.84765625 C12.037244 15.47653373 11.9082627 23.48250881 9.171875 29.94921875 C6.59559507 34.12333083 3.27517884 36.72185719 -1.328125 38.38671875 C-6.58298396 39.23987832 -11.47860058 39.20572939 -16.265625 36.69921875 C-20.88294947 33.21266762 -23.48601415 29.85007314 -25.328125 24.38671875 C-25.99106764 17.98975275 -26.27495238 11.73403326 -22.328125 6.38671875 C-15.54032851 -0.25966531 -9.5902701 -2.52629598 0 0 Z " fill="#F7BB1D" transform="translate(765.328125,65.61328125)"/>
<path d="M0 0 C0 3.96 0 7.92 0 12 C-1.52625 11.01 -3.0525 10.02 -4.625 9 C-11.36025053 5.32305857 -17.4648178 4.88437704 -25 6 C-27.73394777 7.01561287 -28.81999705 7.93473404 -31 10 C-31.763125 10.680625 -32.52625 11.36125 -33.3125 12.0625 C-37.11873287 16.43261922 -36.33171097 22.05419564 -36.26953125 27.54296875 C-35.83966355 33.05648931 -34.43910328 35.60992392 -30.4453125 39.5234375 C-25.23960184 43.56735865 -19.78592344 43.77418646 -13.359375 43.57421875 C-9.03655914 42.83531883 -6.61001119 41.2772279 -3.453125 38.3125 C-2 37 -2 37 0 37 C0 40.63 0 44.26 0 48 C-8.67277892 53.27168915 -17.7408533 54.75705487 -27.82421875 52.31640625 C-37.23465066 48.8433372 -42.66596614 43.52909969 -46.89453125 34.42578125 C-49.27389687 27.05227011 -49.613598 18.50582776 -46.25 11.375 C-45.53517763 10.22732671 -44.78821792 9.09856156 -44 8 C-43.443125 7.13375 -42.88625 6.2675 -42.3125 5.375 C-30.10622613 -7.16117316 -15.04161776 -7.52080888 0 0 Z " fill="#0D0A01" transform="translate(669,61)"/>
<path d="M0 0 C2.64 0 5.28 0 8 0 C8 26.4 8 52.8 8 80 C5.36 80 2.72 80 0 80 C0 53.6 0 27.2 0 0 Z " fill="#040300" transform="translate(854,32)"/>
<path d="M0 0 C-1.30936898 2.92090003 -2.75619462 4.75619462 -5 7 C-6.24473532 10.73420597 -6.23209785 14.27365238 -6.31640625 18.16796875 C-6.33718735 18.96278152 -6.35796844 19.7575943 -6.37937927 20.57649231 C-6.44472087 23.11340763 -6.50368808 25.65042573 -6.5625 28.1875 C-6.60569986 29.90821372 -6.64931463 31.62891708 -6.69335938 33.34960938 C-6.80038648 37.56630113 -6.90169724 41.7830962 -7 46 C-7.33 46 -7.66 46 -8 46 C-8.07440448 40.84052654 -8.12872191 35.68136849 -8.16479492 30.52148438 C-8.17983995 28.76784827 -8.20028104 27.01424953 -8.22631836 25.26074219 C-8.26289121 22.73362991 -8.2797692 20.20701704 -8.29296875 17.6796875 C-8.30845261 16.90132538 -8.32393646 16.12296326 -8.33988953 15.3210144 C-8.34162759 9.64250481 -7.16502939 5.59803527 -3.4375 1.125 C-2 0 -2 0 0 0 Z " fill="#E8B01B" transform="translate(693,67)"/>
<path d="M0 0 C0.33 0 0.66 0 1 0 C1 8.25 1 16.5 1 25 C1.99 25.33 2.98 25.66 4 26 C2.68 26.99 1.36 27.98 0 29 C0 19.43 0 9.86 0 0 Z " fill="#E5AE1A" transform="translate(685,34)"/>
<path d="M0 0 C-1.31177858 2.9262753 -2.75289234 4.75289234 -5 7 C-6.17574711 9.09989652 -6.17574711 9.09989652 -7 11 C-7.33 10.34 -7.66 9.68 -8 9 C-4.17021277 0 -4.17021277 0 0 0 Z " fill="#C89917" transform="translate(693,67)"/>
<path d="M0 0 C0.66 0.33 1.32 0.66 2 1 C-0.64 3.64 -3.28 6.28 -6 9 C-6.66 8.67 -7.32 8.34 -8 8 C-3.375 2.25 -3.375 2.25 0 0 Z " fill="#2B2105" transform="translate(802,60)"/>
<path d="M0 0 C0.66 0.33 1.32 0.66 2 1 C-0.97 3.97 -3.94 6.94 -7 10 C-7 7 -7 7 -4.625 4.4375 C-3.75875 3.633125 -2.8925 2.82875 -2 2 C-1.34 1.34 -0.68 0.68 0 0 Z " fill="#261C04" transform="translate(633,61)"/>
<path d="M0 0 C-1.49097658 3.7952131 -3.75700849 5.61042731 -7 8 C-4.18918919 0 -4.18918919 0 0 0 Z " fill="#D39E10" transform="translate(570,16)"/>
</svg>
